<svg width="128" height="128" viewBox="0 0 128 128" fill="none" xmlns="http://www.w3.org/2000/svg">
  <path d="M64 97C77.8071 97 89 85.8071 89 72C89 58.1929 77.8071 47 64 47C50.1929 47 39 58.1929 39 72C39 85.8071 50.1929 97 64 97Z" fill="#F5F9FF"/>
  <path d="M64 90L55.8 81.8C51.4 77.4 51.4 70.4 55.8 66C60.2 61.6 67.1 61.6 71.5 66L72.1 66.6L72.7 66C77.1 61.6 84 61.6 88.4 66C92.8 70.4 92.8 77.4 88.4 81.8L80.2 90H64Z" fill="#2563EB"/>
  <path d="M45 35H83" stroke="#0F172A" stroke-width="4" stroke-linecap="round"/>
  <path d="M53 27H75" stroke="#FB923C" stroke-width="4" stroke-linecap="round"/>
</svg>
