<svg xmlns="http://www.w3.org/2000/svg" width="500" height="500" viewBox="0 0 500 500">
<g>
<path d="M 273.27 255.53 C270.27,253.57 267.16,251.55 264.00,249.50 C249.11,239.87 242.50,237.18 239.36,239.48 C237.82,240.60 237.76,241.24 238.82,244.79 C239.01,245.42 239.19,246.71 239.37,248.59 C239.24,247.37 239.11,246.64 238.99,246.49 C238.33,245.70 235.57,245.43 230.75,245.69 C224.27,246.04 222.97,245.79 218.54,243.29 C207.74,237.22 204.72,227.21 210.31,216.00 C211.80,213.01 214.01,210.03 215.22,209.38 C217.32,208.26 217.14,208.03 211.46,204.50 C209.33,203.17 199.89,197.22 186.80,188.94 C200.11,197.35 209.67,203.38 212.00,204.82 L 218.98 209.15 L 224.49 207.92 C225.53,207.68 226.42,207.50 227.23,207.38 C226.38,207.54 225.42,207.77 224.26,208.07 C217.53,209.80 215.20,212.50 214.36,219.59 C213.67,225.43 215.71,230.54 219.30,231.96 C233.29,237.52 235.34,238.08 238.10,237.12 C240.21,236.38 242.01,236.54 245.21,237.75 C249.03,239.20 254.64,242.43 256.00,243.97 C256.27,244.28 259.65,246.60 263.50,249.12 C267.05,251.44 270.30,253.57 273.27,255.53 ZM 313.31 408.57 C309.80,406.93 307.26,404.84 305.43,402.08 C302.96,398.35 302.78,397.38 303.21,390.63 C303.80,381.38 306.55,376.96 316.24,369.71 C307.37,376.35 304.31,381.92 305.44,389.42 C306.37,395.64 309.93,399.00 315.36,398.78 C318.04,398.67 321.44,399.53 325.00,401.22 C332.08,404.58 334.65,404.60 339.48,401.32 C341.26,400.11 342.47,399.43 344.93,398.97 L 339.92 403.58 C331.34,411.46 322.92,413.04 313.31,408.57 ZM 429.74 375.21 C429.11,373.95 429.00,372.23 429.00,368.65 C429.00,360.13 427.32,358.05 422.65,360.77 C419.69,362.49 419.48,363.00 419.22,369.05 C419.14,370.88 419.06,372.22 418.88,373.29 C418.96,372.44 418.97,371.41 418.95,370.09 C418.90,362.77 417.49,359.94 411.77,355.62 C409.34,353.78 407.71,352.44 405.84,351.92 C403.49,351.26 400.78,351.90 395.65,354.50 C401.71,351.13 404.74,349.71 407.46,348.75 C413.74,346.54 414.72,346.56 422.99,349.07 C431.20,351.56 435.99,350.71 441.63,345.75 C442.98,344.57 443.82,343.82 444.32,343.01 C443.96,344.01 443.40,345.05 442.61,346.41 C440.96,349.22 438.24,351.95 435.45,353.58 C432.98,355.03 430.51,357.04 429.98,358.04 C429.44,359.05 429.00,363.31 429.00,367.51 C429.00,371.92 429.08,373.87 429.74,375.21 ZM 428.00 166.12 L 427.50 127.50 L 424.63 127.17 C423.05,126.99 421.25,127.35 420.63,127.97 C419.85,128.75 419.35,140.84 419.00,167.14 L 418.50 205.18 L 416.70 206.72 C418.57,203.52 418.50,195.52 418.50,167.10 C418.50,124.77 418.36,123.78 412.15,123.18 C408.10,122.79 403.00,125.19 382.00,137.33 C378.55,139.32 374.70,141.55 371.02,143.68 C373.64,142.15 376.23,140.64 378.50,139.32 C385.10,135.47 393.65,130.63 397.50,128.55 C401.35,126.47 405.65,123.70 407.05,122.39 C408.62,120.92 410.82,120.00 412.75,120.00 C414.47,120.00 416.17,119.53 416.53,118.96 C416.95,118.28 420.85,118.14 427.83,118.56 C434.50,118.96 439.51,118.80 441.20,118.14 C444.55,116.83 446.57,113.28 446.80,108.54 C446.97,112.69 446.58,114.38 445.07,116.76 C442.78,120.40 437.93,123.77 433.71,124.67 C428.06,125.88 428.00,126.02 428.00,166.12 ZM 427.99 278.37 C428.10,251.33 427.86,244.14 426.81,243.31 C424.79,241.72 420.19,240.88 419.51,241.98 C419.18,242.52 418.68,258.39 418.41,277.23 C418.31,284.51 418.16,291.05 417.99,296.51 C417.99,293.20 417.96,289.28 417.96,284.58 C417.90,251.04 417.13,242.33 413.98,239.78 C409.67,236.29 405.59,237.35 392.50,245.39 C388.10,248.09 376.62,255.02 367.00,260.78 C376.62,255.02 388.10,248.08 392.50,245.35 C396.90,242.63 401.17,240.09 402.00,239.71 C402.83,239.33 404.17,238.62 405.00,238.15 C412.52,233.82 412.80,233.76 421.31,235.02 C430.60,236.39 436.62,235.38 440.16,231.84 C440.58,231.42 440.92,231.02 441.18,230.59 C440.86,231.35 440.41,232.10 439.81,232.98 C438.51,234.90 435.69,237.45 433.56,238.65 C431.42,239.84 429.33,241.44 428.91,242.20 C428.60,242.74 428.22,260.58 427.99,278.37 ZM 190.02 301.55 C137.01,266.76 135.60,266.00 133.82,267.78 C133.20,268.40 133.24,270.83 133.94,274.62 C135.56,283.32 137.50,381.76 136.12,385.27 C136.01,385.56 135.85,385.87 135.66,386.17 C136.37,383.95 136.48,378.96 136.43,364.71 C136.39,353.05 135.81,337.88 135.15,331.00 C134.49,324.12 133.52,312.65 132.99,305.50 C132.46,298.35 131.31,286.49 130.43,279.14 C128.67,264.52 129.02,262.78 133.36,264.76 C134.69,265.36 147.87,273.81 162.64,283.53 C171.80,289.57 182.02,296.28 190.02,301.55 ZM 397.72 397.72 C406.39,398.04 412.93,398.56 413.71,399.19 C414.37,399.73 415.35,399.90 415.89,399.57 C416.42,399.24 419.87,400.10 423.55,401.48 C427.23,402.87 431.28,404.00 432.55,404.00 C435.83,404.00 440.90,399.02 441.84,395.26 C441.57,397.37 440.74,399.46 439.37,401.56 C437.04,405.12 428.65,408.98 423.21,408.99 C419.03,409.00 411.00,405.80 411.00,404.13 C411.00,403.67 409.96,402.17 408.69,400.79 C406.76,398.72 405.53,398.29 397.72,397.72 ZM 249.02 335.93 C249.01,336.09 249.00,336.26 249.00,336.43 C249.00,339.99 244.89,346.90 241.56,348.96 C236.80,351.91 227.48,351.79 222.90,348.73 C216.30,344.32 214.58,335.82 218.62,328.26 C218.09,329.54 218.00,331.05 218.00,333.70 C218.00,340.51 219.79,343.00 224.69,343.00 C226.56,343.00 229.94,343.95 232.20,345.10 C239.68,348.92 247.41,345.52 248.63,337.88 C248.75,337.19 248.87,336.54 249.02,335.93 ZM 320.00 363.93 L 319.97 335.70 C319.94,307.69 319.76,304.29 318.22,302.49 C315.10,298.85 310.77,296.00 308.34,296.00 C305.66,296.00 300.07,298.65 288.89,305.42 C303.55,296.54 309.56,294.20 316.63,293.55 C322.52,293.02 324.05,293.19 325.41,294.56 C327.39,296.53 326.10,298.70 322.68,299.19 L 320.50 299.50 L 320.24 333.21 L 320.00 363.93 ZM 320.50 221.58 L 320.50 263.17 L 320.19 226.33 C320.01,205.03 319.45,188.13 318.86,186.24 C316.78,179.61 310.51,179.25 299.34,185.11 C298.11,185.76 296.36,186.73 294.27,187.91 C296.86,186.35 299.10,184.92 300.00,184.23 C306.58,179.13 312.41,177.40 317.50,179.03 L 320.50 179.99 L 320.50 221.58 ZM 240.62 309.28 C240.44,310.99 240.19,311.85 239.83,312.31 C238.21,314.41 219.55,319.29 216.63,318.37 C216.03,318.19 212.69,316.18 208.00,313.22 C215.59,317.73 218.44,317.86 222.96,315.52 C224.54,314.70 228.32,313.74 231.37,313.39 C234.87,312.97 237.72,311.98 239.11,310.68 L 240.62 309.28 ZM 329.78 324.31 L 329.98 297.50 L 332.24 296.26 C335.90,294.27 339.07,294.79 345.21,298.44 C339.62,295.34 335.03,295.21 332.40,298.10 C330.74,299.94 330.45,302.51 329.78,324.31 ZM 80.22 390.95 C62.07,391.12 60.13,390.83 58.60,389.46 C60.14,390.68 63.17,390.94 80.22,390.95 ZM 417.26 311.23 C417.14,312.48 417.02,313.26 416.90,313.50 C416.21,314.85 414.95,316.00 410.06,319.26 C412.83,317.29 414.64,316.15 415.82,314.55 C416.48,313.66 416.94,312.62 417.26,311.23 ZM 133.59 388.39 C133.15,388.72 132.70,388.99 132.27,389.17 C131.63,389.43 129.58,389.67 126.19,389.88 C129.83,389.51 132.18,389.02 133.59,388.39 ZM 444.44 97.11 C443.27,94.89 441.62,93.05 439.36,91.33 C438.93,91.00 438.52,90.70 438.12,90.44 C440.93,91.92 443.02,94.13 444.44,97.11 ZM 219.63 326.59 C224.14,320.13 233.77,317.92 242.37,321.51 C242.38,321.52 242.40,321.52 242.42,321.53 C234.85,318.39 226.43,319.63 221.43,324.63 C220.68,325.38 220.09,326.00 219.63,326.59 ZM 286.51 192.39 C282.75,194.59 278.72,196.99 275.00,199.25 C272.09,201.02 269.21,202.77 266.58,204.36 C272.58,200.59 279.54,196.40 286.51,192.39 ZM 57.67 387.88 C56.52,383.37 56.55,363.47 56.76,248.14 C56.55,362.84 56.55,383.29 57.67,387.88 ZM 248.48 217.28 C245.93,220.90 245.31,224.84 247.08,228.15 C245.23,224.70 245.75,220.78 248.48,217.28 ZM 407.74 211.25 C405.20,211.58 402.74,210.70 396.57,206.93 C402.10,210.26 405.06,211.44 407.74,211.25 ZM 355.47 377.76 C358.34,376.19 364.93,372.39 371.50,368.52 C372.08,368.18 372.65,367.84 373.21,367.51 C372.65,367.84 372.08,368.19 371.50,368.53 C365.02,372.41 357.88,376.52 355.47,377.76 ZM 348.37 383.79 C349.30,381.83 351.35,379.88 354.32,378.38 C351.35,380.05 349.32,381.94 348.37,383.79 ZM 268.25 318.44 C261.16,323.06 256.57,326.27 253.66,328.80 C256.47,326.27 260.95,323.17 268.25,318.44 ZM 302.98 275.64 C301.58,274.46 296.16,270.71 288.55,265.62 C297.31,271.45 301.41,274.32 302.98,275.64 ZM 359.30 397.79 C359.35,397.79 359.40,397.79 359.46,397.78 C362.09,397.64 365.07,397.54 368.24,397.47 C367.22,397.50 366.21,397.54 365.22,397.57 L 359.30 397.79 ZM 444.91 338.64 C444.87,337.96 444.81,337.18 444.73,336.26 C444.53,333.78 444.10,331.59 443.36,329.61 C444.07,331.50 444.51,333.57 444.72,335.87 C444.82,336.94 444.89,337.84 444.91,338.64 ZM 343.24 374.00 C341.53,374.00 338.83,372.87 336.34,371.37 C338.88,372.85 341.64,374.00 343.24,374.00 ZM 408.25 386.33 C408.97,385.54 409.90,384.56 410.89,383.54 C409.90,384.57 408.97,385.56 408.25,386.35 L 405.01 389.94 ZM 330.57 366.32 C330.48,366.15 330.40,365.99 330.34,365.83 C330.30,365.71 330.26,365.47 330.22,365.11 C330.33,365.57 330.45,365.97 330.57,366.32 ZM 441.46 220.06 C441.01,217.29 440.15,215.24 438.49,213.20 C440.16,215.23 441.02,217.29 441.46,220.06 ZM 350.52 301.81 C351.35,302.37 351.89,302.78 352.00,302.94 C352.27,303.33 353.17,303.90 354.00,304.21 C353.17,303.90 352.27,303.33 352.00,302.95 C351.88,302.79 351.33,302.37 350.52,301.81 ZM 404.09 323.17 C403.68,323.42 403.32,323.60 402.95,323.71 C403.28,323.58 403.66,323.39 404.09,323.17 ZM 343.52 285.67 C342.02,283.53 342.01,281.77 342.45,279.40 C342.01,281.77 342.03,283.54 343.52,285.67 ZM 249.55 206.05 C255.71,202.56 265.99,196.11 284.50,184.69 C265.99,196.10 255.71,202.56 249.55,206.05 ZM 317.69 265.58 L 320.50 263.17 L 320.50 263.17 L 317.69 265.59 C316.67,266.46 315.41,267.11 314.04,267.50 C315.41,267.11 316.67,266.46 317.69,265.58 ZM 235.84 208.45 C235.86,208.46 235.88,208.46 235.90,208.47 C237.43,208.93 238.43,209.41 239.44,209.63 C238.41,209.41 237.40,208.93 235.84,208.45 ZM 244.36 322.33 C244.51,322.38 244.66,322.42 244.80,322.45 C247.19,322.91 250.05,320.91 267.00,310.08 C250.11,320.88 247.21,322.91 244.80,322.44 C244.65,322.42 244.51,322.38 244.36,322.33 ZM 432.69 378.22 C432.34,377.93 431.99,377.63 431.63,377.33 C431.40,377.14 431.20,376.96 431.01,376.79 C431.20,376.96 431.40,377.14 431.63,377.33 C431.99,377.62 432.34,377.92 432.69,378.22 Z" fill="rgba(0,0,1,1)"/>
<path d="M 325.00 401.22 C321.44,399.53 318.04,398.67 315.36,398.78 C309.93,399.00 306.37,395.64 305.44,389.42 C304.31,381.92 307.37,376.35 316.24,369.71 L 319.97 366.92 L 320.24 333.21 L 320.50 299.50 L 322.68 299.19 C326.10,298.70 327.39,296.53 325.41,294.56 C324.05,293.19 322.52,293.02 316.63,293.55 C307.44,294.39 300.04,298.09 273.14,315.30 C252.04,328.80 249.75,330.91 248.63,337.88 C247.41,345.52 239.68,348.92 232.20,345.10 C229.94,343.95 226.56,343.00 224.69,343.00 C219.79,343.00 218.00,340.51 218.00,333.70 C218.00,328.62 218.33,327.73 221.43,324.63 C226.45,319.62 234.89,318.39 242.48,321.56 C243.44,321.96 244.10,322.31 244.80,322.45 C247.19,322.91 250.05,320.91 267.00,310.08 C273.88,305.68 284.35,299.07 290.28,295.40 C306.21,285.52 309.20,280.87 302.98,275.64 C300.34,273.42 290.53,266.82 263.50,249.12 C259.65,246.60 256.27,244.28 256.00,243.97 C254.64,242.43 249.03,239.20 245.21,237.75 C242.01,236.54 240.21,236.38 238.10,237.12 C235.34,238.08 233.29,237.52 219.30,231.96 C215.71,230.54 213.67,225.43 214.36,219.59 C215.20,212.50 217.53,209.80 224.26,208.07 C229.31,206.76 230.38,206.80 235.82,208.44 C237.47,208.95 238.51,209.46 239.61,209.66 C243.52,210.39 248.18,207.09 284.50,184.69 C303.39,173.04 303.66,172.84 305.41,169.89 C306.28,168.41 307.00,165.83 307.00,164.16 C307.00,157.92 310.03,153.54 316.71,150.14 C322.25,147.32 327.54,147.43 333.58,150.50 C336.29,151.87 338.95,152.99 339.50,152.99 C340.68,152.99 342.22,152.16 355.50,144.46 C361.00,141.27 368.42,137.08 372.00,135.15 C375.58,133.23 379.85,130.67 381.50,129.47 C383.15,128.27 386.98,125.98 390.00,124.39 C393.02,122.80 395.95,121.15 396.50,120.71 C397.05,120.28 399.62,118.61 402.22,117.01 C407.21,113.92 407.48,113.35 408.53,103.66 C409.05,98.90 409.80,97.12 412.59,94.03 C417.22,88.91 420.58,87.69 428.84,88.16 C434.47,88.48 436.39,89.06 439.36,91.33 C443.95,94.82 446.02,98.81 446.70,105.43 C447.35,111.70 445.25,116.56 441.20,118.14 C439.51,118.80 434.50,118.96 427.83,118.56 C420.85,118.14 416.95,118.28 416.53,118.96 C416.17,119.53 414.47,120.00 412.75,120.00 C410.82,120.00 408.62,120.92 407.05,122.39 C405.65,123.70 401.35,126.47 397.50,128.55 C393.65,130.63 385.10,135.47 378.50,139.32 C371.90,143.17 362.52,148.61 357.65,151.41 C344.99,158.69 344.00,159.76 344.00,166.28 C344.00,168.06 343.99,169.36 344.36,170.55 C345.34,173.77 349.04,176.16 363.00,185.23 C370.98,190.41 382.08,197.62 387.67,201.26 C402.86,211.15 405.03,212.11 409.37,210.91 C411.36,210.36 414.23,208.84 415.75,207.54 L 418.50 205.18 L 419.00 167.14 C419.35,140.84 419.85,128.75 420.63,127.97 C421.25,127.35 423.05,126.99 424.63,127.17 L 427.50 127.50 L 428.50 204.74 L 432.91 208.12 C439.73,213.35 441.35,216.13 441.81,223.40 C442.16,228.83 441.91,230.09 440.16,231.84 C436.62,235.38 430.60,236.39 421.31,235.02 C412.80,233.76 412.52,233.82 405.00,238.15 C404.17,238.62 402.83,239.33 402.00,239.71 C401.17,240.09 396.90,242.63 392.50,245.35 C388.10,248.08 376.62,255.02 367.00,260.78 C344.68,274.14 343.23,275.23 342.45,279.40 C341.27,285.70 343.32,287.67 367.74,303.76 C380.30,312.04 393.16,320.08 396.33,321.64 C401.60,324.22 402.28,324.34 404.38,322.98 C414.11,316.69 415.99,315.26 416.90,313.50 C417.51,312.31 418.12,297.67 418.41,277.23 C418.68,258.39 419.18,242.52 419.51,241.98 C420.19,240.88 424.79,241.72 426.81,243.31 C427.86,244.14 428.10,251.34 427.99,278.43 C427.91,297.17 427.88,313.00 427.93,313.61 C427.97,314.22 430.47,316.36 433.49,318.36 C440.99,323.34 444.09,328.28 444.73,336.26 C445.23,342.52 445.20,342.62 441.63,345.75 C435.99,350.71 431.20,351.56 422.99,349.07 C414.72,346.56 413.74,346.54 407.46,348.75 C402.40,350.54 396.27,353.91 371.50,368.52 C363.80,373.06 356.08,377.49 354.34,378.37 C348.17,381.48 345.95,386.57 349.49,389.50 C350.25,390.13 360.79,390.40 377.85,390.22 L 405.01 389.94 L 408.25 386.35 C410.04,384.38 413.17,381.13 415.22,379.13 C418.66,375.77 418.96,375.01 419.22,369.05 C419.48,363.00 419.69,362.49 422.65,360.77 C427.32,358.05 429.00,360.13 429.00,368.65 C429.00,374.45 429.28,375.39 431.63,377.33 C439.11,383.52 442.00,388.19 442.00,394.10 C442.00,397.90 436.18,404.00 432.55,404.00 C431.28,404.00 427.23,402.87 423.55,401.48 C419.87,400.10 416.42,399.24 415.89,399.57 C415.35,399.90 414.37,399.73 413.71,399.19 C411.88,397.70 377.57,396.81 359.46,397.78 C344.43,398.59 343.17,398.81 339.48,401.32 C334.65,404.60 332.08,404.58 325.00,401.22 ZM 317.69 265.59 L 320.50 263.17 L 320.50 179.99 L 317.50 179.03 C312.41,177.40 306.58,179.13 300.00,184.23 C298.62,185.29 294.12,188.07 290.00,190.40 C271.39,200.92 251.82,213.44 249.04,216.61 C245.83,220.27 245.11,224.47 247.08,228.15 C248.49,230.78 300.53,264.75 307.00,267.26 C310.52,268.62 314.97,267.93 317.69,265.59 ZM 352.53 260.39 C377.37,245.82 398.46,232.45 401.70,229.20 C404.16,226.75 404.60,223.99 403.02,221.04 C402.48,220.03 394.50,214.36 385.27,208.43 C376.05,202.50 367.15,196.65 365.50,195.42 C357.87,189.76 340.43,180.00 337.94,180.00 C336.45,180.00 334.16,180.86 332.86,181.91 L 330.50 183.82 L 330.19 222.12 C330.03,243.18 330.14,261.42 330.45,262.64 C331.26,265.90 333.77,268.00 336.85,268.00 C338.42,268.00 345.01,264.80 352.53,260.39 ZM 354.80 368.87 C362.84,364.12 367.27,361.43 388.06,348.67 C397.46,342.90 400.42,339.91 399.53,337.08 C398.85,334.94 392.13,328.02 390.71,328.01 C390.27,328.00 389.37,327.53 388.71,326.97 C386.56,325.13 355.55,304.80 354.00,304.21 C353.17,303.90 352.27,303.33 352.00,302.94 C351.73,302.55 348.80,300.60 345.50,298.62 C339.17,294.81 335.95,294.24 332.24,296.26 L 329.98 297.50 L 329.74 330.50 C329.61,348.65 329.88,364.55 330.34,365.83 C331.43,368.85 339.57,374.00 343.24,374.00 C344.88,374.00 349.81,371.81 354.80,368.87 Z" fill="rgba(31,86,180,1)"/>
<path d="M 58.36 389.25 C56.56,387.56 56.51,382.92 56.76,248.14 L 57.03 108.77 L 59.16 109.18 L 59.28 109.20 C60.37,109.41 69.81,114.99 81.23,122.15 C69.80,114.99 60.31,109.40 59.16,109.18 C57.01,108.77 56.89,108.93 57.92,110.85 C58.55,112.02 60.36,113.65 61.95,114.47 C67.83,117.51 96.64,136.95 100.77,140.65 C103.12,142.76 105.82,144.80 106.77,145.17 C107.72,145.55 108.13,145.89 107.68,145.93 C107.23,145.97 107.56,146.71 108.43,147.57 C109.29,148.44 110.00,149.82 110.00,150.64 C110.00,151.46 111.17,153.67 112.61,155.56 C114.13,157.54 114.97,159.64 114.61,160.56 C113.96,162.27 117.81,168.13 121.83,171.55 C123.52,172.99 124.49,175.23 125.10,179.05 C125.57,182.04 126.64,185.00 127.48,185.61 C128.32,186.22 129.00,187.43 129.00,188.29 C129.00,189.15 130.30,190.90 131.89,192.18 C134.92,194.61 139.00,201.74 139.00,204.59 C139.00,206.06 145.20,213.35 150.31,217.89 C155.05,222.09 169.94,237.60 169.97,238.36 C170.02,239.64 176.03,246.99 176.82,246.74 C177.19,246.62 180.78,249.75 184.78,253.70 C188.79,257.65 192.88,261.15 193.88,261.46 C194.88,261.78 197.14,263.83 198.90,266.02 C200.65,268.21 202.67,270.00 203.37,270.00 C204.08,270.00 205.74,271.16 207.08,272.59 C208.41,274.01 211.07,275.83 213.00,276.63 C214.93,277.44 218.21,279.28 220.31,280.72 C224.79,283.82 228.71,284.26 230.39,281.85 C231.53,280.22 231.66,280.23 232.70,281.89 C233.30,282.86 234.12,289.69 234.52,297.08 C234.92,304.46 235.45,310.84 235.69,311.27 C237.50,314.38 238.00,307.31 238.00,278.44 C238.00,253.20 237.72,245.98 236.75,245.92 C236.06,245.87 232.96,245.90 229.85,245.98 C228.65,246.02 227.47,245.96 226.31,245.81 C227.50,245.84 228.92,245.79 230.75,245.69 C235.57,245.43 238.33,245.70 238.99,246.49 C239.56,247.17 240.26,260.63 240.65,278.15 L 241.31 308.63 L 239.11 310.68 C237.72,311.98 234.87,312.97 231.37,313.39 C228.32,313.74 224.54,314.70 222.96,315.52 C217.34,318.43 214.30,317.52 201.50,309.10 C194.90,304.76 177.41,293.26 162.64,283.53 C147.87,273.81 134.69,265.36 133.36,264.76 C129.02,262.78 128.67,264.52 130.43,279.14 C131.31,286.49 132.46,298.35 132.99,305.50 C133.52,312.65 134.49,324.12 135.15,331.00 C135.81,337.88 136.39,353.05 136.43,364.71 C136.49,383.29 136.29,386.13 134.82,387.60 C132.38,390.05 121.01,390.86 88.36,390.94 C62.88,390.99 60.05,390.83 58.36,389.25 ZM 125.61 384.42 C125.94,385.29 126.39,386.00 126.61,386.00 C126.82,386.00 127.00,357.88 127.00,323.50 C127.00,282.50 126.66,261.00 126.00,261.00 C124.91,261.00 124.53,381.60 125.61,384.42 ZM 212.97 205.44 C217.15,208.08 217.11,208.37 215.22,209.38 C214.01,210.03 211.80,213.01 210.31,216.00 C207.20,222.25 206.76,228.12 208.84,233.15 C208.06,231.55 207.44,229.84 207.01,228.03 C205.23,220.60 207.92,211.45 212.63,208.93 C214.52,207.92 214.79,206.99 212.97,205.44 ZM 93.55 129.94 C124.82,149.76 177.36,182.99 200.45,197.56 C187.17,189.26 155.81,169.42 93.55,129.94 ZM 215.25 241.14 C216.25,241.90 217.35,242.62 218.54,243.29 C218.71,243.39 218.88,243.49 219.05,243.58 C217.71,242.90 216.43,242.08 215.25,241.14 Z" fill="rgba(181,4,5,1)"/>
<path d="M 125.61 384.42 C124.53,381.60 124.91,261.00 126.00,261.00 C126.66,261.00 127.00,282.50 127.00,323.50 C127.00,357.88 126.82,386.00 126.61,386.00 C126.39,386.00 125.94,385.29 125.61,384.42 ZM 235.69 311.27 C235.45,310.84 234.92,304.46 234.52,297.08 C234.12,289.69 233.30,282.86 232.70,281.89 C231.66,280.23 231.53,280.22 230.39,281.85 C228.71,284.26 224.79,283.82 220.31,280.72 C218.21,279.28 214.93,277.44 213.00,276.63 C211.07,275.83 208.41,274.01 207.08,272.59 C205.74,271.16 204.08,270.00 203.37,270.00 C202.67,270.00 200.65,268.21 198.90,266.02 C197.14,263.83 194.88,261.78 193.88,261.46 C192.88,261.15 188.79,257.65 184.78,253.70 C180.78,249.75 177.19,246.62 176.82,246.74 C176.03,246.99 170.02,239.64 169.97,238.36 C169.94,237.60 155.05,222.09 150.31,217.89 C145.20,213.35 139.00,206.06 139.00,204.59 C139.00,201.74 134.92,194.61 131.89,192.18 C130.30,190.90 129.00,189.15 129.00,188.29 C129.00,187.43 128.32,186.22 127.48,185.61 C126.64,185.00 125.57,182.04 125.10,179.05 C124.49,175.23 123.52,172.99 121.83,171.55 C117.81,168.13 113.96,162.27 114.61,160.56 C114.97,159.64 114.13,157.54 112.61,155.56 C111.17,153.67 110.00,151.46 110.00,150.64 C110.00,149.82 109.29,148.44 108.43,147.57 C107.56,146.71 107.23,145.97 107.68,145.93 C108.13,145.89 107.72,145.55 106.77,145.17 C105.82,144.80 103.12,142.76 100.77,140.65 C96.64,136.95 67.83,117.51 61.95,114.47 C60.36,113.65 58.55,112.02 57.92,110.85 C56.89,108.93 57.01,108.77 59.16,109.18 C60.47,109.43 72.55,116.62 86.02,125.16 C174.15,181.06 204.05,199.94 208.08,202.26 C214.61,206.00 215.54,207.37 212.63,208.93 C207.92,211.45 205.23,220.60 207.01,228.03 C209.62,238.93 218.96,246.27 229.85,245.98 C232.96,245.90 236.06,245.87 236.75,245.92 C237.72,245.98 238.00,253.20 238.00,278.44 C238.00,307.31 237.50,314.38 235.69,311.27 Z" fill="rgba(238,48,46,1)"/>
</g>
</svg>