<svg width="96" height="64" viewBox="0 0 96 64" fill="none" xmlns="http://www.w3.org/2000/svg">
  <rect width="96" height="64" rx="14" fill="white"/>
  <path d="M34.5 16H48.5C56 16 60.5 20.2 60.5 26.5C60.5 33.8 55.1 38.5 46.7 38.5H40.7L38.7 48H30L34.5 16ZM46.1 31.5C50.2 31.5 53 29.5 53 26.5C53 23.7 50.9 22 46.8 22H40.8L39.2 31.5H46.1Z" fill="#003087"/>
  <path d="M45.9 20H58.8C66.2 20 70 23.8 70 29.3C70 36.5 64.6 41 56.8 41H51.3L49.8 48H42.3L45.9 20Z" fill="#009CDE" fill-opacity="0.92"/>
</svg>
