<svg width="96" height="64" viewBox="0 0 96 64" fill="none" xmlns="http://www.w3.org/2000/svg">
  <rect width="96" height="64" rx="14" fill="white"/>
  <path d="M30.2 44L34.5 20H41L36.7 44H30.2Z" fill="#1A1F71"/>
  <path d="M60.9 20.6C59.6 20.1 57.4 19.5 54.7 19.5C47.9 19.5 43.2 23.1 43.2 28.3C43.2 32.1 46.7 34.2 49.4 35.5C52.2 36.8 53.1 37.7 53.1 39C53.1 41 50.7 41.9 48.5 41.9C45.4 41.9 43.7 41.5 41 40.3L40 39.8L39 45.6C40.9 46.5 44.2 47.3 47.7 47.3C54.9 47.3 59.6 43.8 59.6 38.3C59.6 35.3 57.7 33 53.5 31C51 29.8 49.5 29 49.5 27.7C49.5 26.6 50.8 25.5 53.5 25.5C55.7 25.5 57.4 26 58.6 26.5L59.2 26.8L60.9 20.6Z" fill="#1A1F71"/>
  <path d="M67.9 20H73.1L81.2 44H75.2L74.1 40.6H66.7L64.9 44H58.1L67.9 20ZM68.6 35.6H72.9L71.3 30.6C70.8 29.2 70.3 27.2 69.9 25.8H69.8C69.4 27.2 68.8 29.3 68.4 30.6L66.6 35.6H68.6Z" fill="#1A1F71"/>
</svg>
